<?xml version="1.0" standalone="no"?><!DOCTYPE svg PUBLIC "-//W3C//DTD SVG 1.1//EN" "http://www.w3.org/Graphics/SVG/1.1/DTD/svg11.dtd"><svg t="1678691212642" class="icon" viewBox="0 0 1024 1024" version="1.1" xmlns="http://www.w3.org/2000/svg" p-id="8110" xmlns:xlink="http://www.w3.org/1999/xlink" width="200" height="200"><path d="M236.308 620.308a18.51 18.51 0 0 1-6.302 0 29.145 29.145 0 0 1-22.45-35.053c39.386-181.957 143.755-220.16 225.675-220.16 66.166 0 93.341 60.653 115.003 109.096 24.418 53.563 42.535 87.04 81.92 87.04 86.252 0 132.332-85.859 169.354-178.413a29.538 29.538 0 0 1 55.138 22.056c-42.93 106.338-102.794 215.434-224.492 215.434-80.739 0-111.459-68.136-135.877-122.486s-35.84-74.437-61.046-74.437c-88.222 0-143.36 56.713-168.173 173.686a29.145 29.145 0 0 1-28.75 23.237z" fill="#333333" p-id="8111"></path></svg>